<svg viewBox="0 0 320 180" xmlns="http://www.w3.org/2000/svg"><defs><linearGradient id="s" x1="0" y1="0" x2="0" y2="1"><stop offset="0" stop-color="#4f8fc4"/><stop offset="1" stop-color="#e2eff2"/></linearGradient><linearGradient id="h" x1="0" y1="0" x2="0" y2="1"><stop offset="0" stop-color="#7a4b3a"/><stop offset="1" stop-color="#e8572a"/></linearGradient></defs><rect width="320" height="180" fill="url(#s)"/><circle cx="262" cy="30" r="14" fill="#fff8e2"/><polygon points="0,96 40,70 80,84 130,62 180,86 230,70 280,88 320,74 320,100 0,100" fill="#8fae9a"/><rect y="98" width="320" height="82" fill="#a4876a"/><rect y="96" width="320" height="4" fill="#7a9a55"/><rect y="118" width="320" height="18" fill="#8a7a6a"/><rect y="136" width="320" height="44" fill="url(#h)"/><g stroke="#aeb8be" stroke-width="5" fill="none"><path d="M44 96 V140 L58 162"/><path d="M262 96 V142 L248 164"/></g><g stroke="#2a3a46" stroke-width="2.4" fill="none"><path d="M44 96 V140 L58 162"/><path d="M262 96 V142 L248 164"/></g><path d="M44 80 V70 H86 V76" fill="none" stroke="#6a747a" stroke-width="3"/><rect x="40" y="80" width="8" height="16" fill="#c9d1d6"/><rect x="78" y="76" width="40" height="16" rx="8" fill="#dfe5e8" stroke="#8d989f"/><rect x="126" y="64" width="64" height="32" fill="#e3e8ec" stroke="#8d989f"/><polygon points="122,64 158,54 194,64" fill="#8d989f"/><g fill="#2a3a46"><rect x="134" y="72" width="10" height="7"/><rect x="150" y="72" width="10" height="7"/><rect x="166" y="72" width="10" height="7"/></g><rect x="200" y="66" width="46" height="8" fill="#c9d1d6" stroke="#8d989f"/><g stroke="#6a747a" stroke-width="2"><line x1="204" y1="74" x2="204" y2="96"/><line x1="223" y1="74" x2="223" y2="96"/><line x1="242" y1="74" x2="242" y2="96"/></g><path d="M100 92 V94 H258 V88" fill="none" stroke="#58b8d0" stroke-width="2"/><g fill="#ff9d7a"><circle cx="80" cy="150" r="2.5"/><circle cx="120" cy="158" r="2.5"/><circle cx="160" cy="152" r="2.5"/><circle cx="200" cy="160" r="2.5"/><circle cx="236" cy="150" r="2.5"/></g><rect x="112" y="12" width="96" height="34" rx="6" fill="rgba(14,42,59,.85)"/><text x="160" y="36" font-family="Barlow Condensed, sans-serif" font-size="19" font-weight="700" fill="#ff8a60" text-anchor="middle">150°C</text></svg>
