<svg viewBox="0 0 320 180" xmlns="http://www.w3.org/2000/svg"><defs><linearGradient id="s" x1="0" y1="0" x2="0" y2="1"><stop offset="0" stop-color="#4f8fc4"/><stop offset="1" stop-color="#e2eff2"/></linearGradient></defs><rect width="320" height="180" fill="url(#s)"/><circle cx="60" cy="42" r="16" fill="#fff8e2"/><rect y="128" width="320" height="52" fill="#a4876a"/><rect y="124" width="320" height="6" fill="#7a9a55"/><g fill="#1f3f66" stroke="#9fc3e6" stroke-width="1"><polygon points="30,112 100,98 102,106 32,120"/><polygon points="130,112 200,98 202,106 132,120"/><polygon points="230,112 300,98 302,106 232,120"/></g><g stroke="#9aa7b0" stroke-width="3"><line x1="45" y1="118" x2="45" y2="126"/><line x1="88" y1="108" x2="88" y2="126"/><line x1="145" y1="118" x2="145" y2="126"/><line x1="188" y1="108" x2="188" y2="126"/><line x1="245" y1="118" x2="245" y2="126"/><line x1="288" y1="108" x2="288" y2="126"/></g></svg>
