<svg viewBox="0 0 320 180" xmlns="http://www.w3.org/2000/svg"><defs><linearGradient id="s" x1="0" y1="0" x2="0" y2="1"><stop offset="0" stop-color="#4f8fc4"/><stop offset="1" stop-color="#e2eff2"/></linearGradient></defs><rect width="320" height="180" fill="url(#s)"/><circle cx="262" cy="30" r="12" fill="#fff8e2"/><rect y="118" width="320" height="62" fill="#7a9a55"/><rect y="124" width="320" height="56" fill="#a4876a"/><path d="M8 94 L50 80 L92 94Z" fill="#6d7c86"/><rect x="12" y="94" width="76" height="30" fill="#e4e0d6"/><rect x="18" y="100" width="64" height="10" fill="#39424a"/><g fill="#f0b4b0"><ellipse cx="30" cy="108" rx="6" ry="3.5"/><ellipse cx="50" cy="108" rx="6" ry="3.5"/><ellipse cx="70" cy="108" rx="6" ry="3.5"/></g><rect x="104" y="124" width="112" height="22" fill="#5a4a32" stroke="#9aa4aa" stroke-width="2"/><path d="M102 124 Q160 78 218 124Z" fill="#8a3f30"/><g fill="#d7c3ff"><circle cx="130" cy="138" r="2"/><circle cx="160" cy="134" r="2.5"/><circle cx="190" cy="140" r="2"/></g><path d="M160 101 V88 H232" fill="none" stroke="#6d7c86" stroke-width="3"/><rect x="230" y="84" width="10" height="40" fill="#c9d1d6"/><rect x="248" y="106" width="36" height="18" fill="#3f6f5c"/><path d="M278 106 V92" stroke="#44535c" stroke-width="3"/><g fill="#b37cff"><circle cx="180" cy="88" r="2.5"/><circle cx="205" cy="88" r="2.5"/></g><path d="M300 124 V76 M292 80 H308" stroke="#6b5a48" stroke-width="2"/><path d="M284 110 L298 82" stroke="#f2c230" stroke-width="1.5"/><text x="160" y="72" font-family="Barlow Condensed,Arial" font-size="13" font-weight="700" fill="#b37cff" text-anchor="middle">CH₄</text></svg>
